<svg xmlns="http://www.w3.org/2000/svg" xmlns:xlink="http://www.w3.org/1999/xlink"><symbol id="icon-arrow" viewBox="0 0 19 11">
<path fill-rule="evenodd" clip-rule="evenodd" d="M12.5848 0.678628C12.6516 0.611693 12.7309 0.558587 12.8182 0.522353C12.9055 0.486119 12.9992 0.467468 13.0937 0.467468C13.1882 0.467468 13.2818 0.486119 13.3692 0.522353C13.4565 0.558587 13.5358 0.611693 13.6026 0.678628L17.9151 4.99113C17.982 5.05789 18.0351 5.13721 18.0713 5.22453C18.1076 5.31185 18.1262 5.40546 18.1262 5.5C18.1262 5.59454 18.1076 5.68816 18.0713 5.77548C18.0351 5.8628 17.982 5.94211 17.9151 6.00888L13.6026 10.3214C13.4676 10.4563 13.2846 10.5322 13.0937 10.5322C12.9028 10.5322 12.7198 10.4563 12.5848 10.3214C12.4499 10.1864 12.374 10.0034 12.374 9.8125C12.374 9.62164 12.4499 9.43859 12.5848 9.30363L16.3899 5.5L12.5848 1.69638C12.5179 1.62961 12.4648 1.5503 12.4285 1.46298C12.3923 1.37566 12.3737 1.28204 12.3737 1.1875C12.3737 1.09296 12.3923 0.999351 12.4285 0.912029C12.4648 0.824708 12.5179 0.745393 12.5848 0.678628Z" fill="#A89365"/>
<path fill-rule="evenodd" clip-rule="evenodd" d="M0.875 5.5C0.875 5.30938 0.950725 5.12656 1.08552 4.99177C1.22031 4.85698 1.40313 4.78125 1.59375 4.78125H16.6875C16.8781 4.78125 17.0609 4.85698 17.1957 4.99177C17.3305 5.12656 17.4062 5.30938 17.4062 5.5C17.4062 5.69062 17.3305 5.87344 17.1957 6.00823C17.0609 6.14303 16.8781 6.21875 16.6875 6.21875H1.59375C1.40313 6.21875 1.22031 6.14303 1.08552 6.00823C0.950725 5.87344 0.875 5.69062 0.875 5.5Z" fill="#A89365"/>
</symbol></svg>